<mxfile host="app.diagrams.net" modified="2024-05-16T18:04:24.869Z" agent="Mozilla/5.0 (Windows NT 10.0; Win64; x64) AppleWebKit/537.36 (KHTML, like Gecko) Chrome/124.0.0.0 Safari/537.36" version="24.4.3" etag="kBo8_TZK2fZZ_phxxyp5" type="github">
  <diagram name="Page-1" id="vtN7_ngcdP_0XGD3Z1J-">
    <mxGraphModel>
      <root>
        <mxCell id="0" />
        <mxCell id="1" parent="0" />
      </root>
    </mxGraphModel>
  </diagram>
</mxfile>
